<svg width="601" height="516" viewBox="0 0 601 516" fill="none" xmlns="http://www.w3.org/2000/svg">
<g clip-path="url(#clip0_905_266)">
<path d="M311.536 433.204L329.137 428.019L324.001 445.67L329.137 463.271L311.536 458.135L293.885 463.271L299.07 445.67L293.885 428.019L311.536 433.204Z" fill="black" stroke="white" stroke-miterlimit="10"/>
</g>
<g clip-path="url(#clip1_905_266)">
<path d="M125.484 346.179L156.96 363.329L125.484 380.616L108.266 412.023L91.0468 380.616L59.5708 363.329L91.0468 346.179L108.266 314.634L125.484 346.179Z" fill="black" stroke="white" stroke-miterlimit="10"/>
</g>
<path d="M565.117 390.003C563.218 393.446 559.679 395.938 554.584 397.483C549.486 399.029 542.874 399.612 534.913 399.269C518.992 398.582 497.791 394.193 472.776 386.537C422.756 371.228 357.594 342.885 289.155 305.135C220.715 267.384 161.982 227.387 122.349 193.245C102.53 176.171 87.5079 160.579 78.4343 147.479C73.8969 140.928 70.8635 135.024 69.4517 129.888C68.0405 124.754 68.2602 120.432 70.1597 116.988C72.0593 113.544 75.5976 111.053 80.693 109.508C85.7907 107.962 92.4028 107.378 100.364 107.722C116.285 108.409 137.486 112.797 162.501 120.453C212.521 135.763 277.683 164.105 346.122 201.856C414.562 239.607 473.295 279.604 512.928 313.746C532.747 330.82 547.769 346.412 556.843 359.512C561.38 366.062 564.414 371.967 565.825 377.103C567.237 382.237 567.017 386.559 565.117 390.003Z" stroke="black"/>
<path d="M544.887 426.676C542.987 430.12 539.449 432.611 534.354 434.157C529.256 435.702 522.644 436.286 514.683 435.943C498.762 435.256 477.56 430.867 452.546 423.211C402.526 407.901 337.364 379.559 268.924 341.809C200.485 304.058 141.752 264.061 102.119 229.918C82.2995 212.845 67.2774 197.253 58.2038 184.153C53.6664 177.602 50.6331 171.698 49.2212 166.562C47.81 161.427 48.0297 157.106 49.9293 153.662C51.8289 150.218 55.3672 147.727 60.4625 146.182C65.5603 144.636 72.1723 144.052 80.1336 144.396C96.0541 145.082 117.256 149.471 142.27 157.127C192.291 172.437 257.452 200.779 325.892 238.53C394.331 276.28 453.064 316.278 492.697 350.42C512.517 367.494 527.539 383.086 536.612 396.185C541.15 402.736 544.183 408.64 545.595 413.777C547.006 418.911 546.786 423.233 544.887 426.676Z" stroke="black"/>
<path d="M524.658 463.351C522.759 466.795 519.22 469.286 514.125 470.831C509.027 472.377 502.415 472.961 494.454 472.617C478.533 471.93 457.332 467.542 432.317 459.885C382.297 444.576 317.135 416.233 248.696 378.483C180.256 340.732 121.523 300.735 81.8905 266.593C62.071 249.519 47.0489 233.927 37.9753 220.827C33.4379 214.276 30.4045 208.372 28.9927 203.236C27.5815 198.102 27.8012 193.78 29.7008 190.336C31.6003 186.892 35.1386 184.401 40.234 182.856C45.3318 181.31 51.9438 180.726 59.9051 181.07C75.8256 181.757 97.0273 186.145 122.042 193.802C172.062 209.111 237.224 237.454 305.663 275.204C374.103 312.955 432.836 352.952 472.469 387.094C492.288 404.168 507.31 419.76 516.384 432.86C520.921 439.411 523.955 445.315 525.366 450.451C526.778 455.585 526.558 459.907 524.658 463.351Z" stroke="black"/>
<circle cx="132.037" cy="105.169" r="15.5" fill="#00286E"/>
<circle cx="421.537" cy="435.669" r="10" fill="#00286E"/>
<circle cx="82.0371" cy="65.1694" r="23.5" fill="black"/>
<path d="M306.509 384.259C300.205 386.414 293.001 382.144 290.495 374.741L251.496 260.479L274.284 252.684L313.322 367.103C315.828 374.427 312.774 382.105 306.509 384.259Z" fill="black"/>
<path d="M303.102 385.669C301.262 385.669 299.383 385.238 297.581 384.338C293.94 382.536 291.042 379.167 289.633 375.015L250.634 260.753C250.478 260.322 250.713 259.813 251.182 259.656L273.971 251.861C274.206 251.783 274.441 251.783 274.636 251.9C274.832 252.018 274.989 252.175 275.067 252.41L314.105 366.828C316.728 374.584 313.439 382.771 306.744 385.082C305.608 385.473 304.355 385.669 303.102 385.669ZM252.592 261.027L291.317 374.466C292.57 378.188 295.154 381.243 298.364 382.81C300.949 384.063 303.729 384.298 306.235 383.437C312.03 381.439 314.849 374.231 312.5 367.376L273.736 253.781L252.592 261.027Z" fill="black"/>
<path d="M270.251 154.051L196.521 206.658L167.821 236.467L156.544 256.405L156.505 256.562C154.273 260.009 155.565 267.96 159.755 276.069C163.866 284.06 169.661 289.622 173.733 289.935L173.616 290.014L195.268 292.364L235.794 285.901L321.818 255.112L428.751 273.444L429.495 273.484C402.635 268.47 366.377 232.55 340.025 181.745C313.713 130.979 305.334 80.8015 316.885 56.0454H316.845L270.838 152.798L270.251 154.051Z" fill="#00286E"/>
<path d="M447.266 271.272C473.694 257.542 468.583 195.298 435.852 132.246C403.121 69.1941 355.163 29.2106 328.736 42.9406C302.308 56.6705 307.419 118.915 340.15 181.967C372.881 245.019 420.839 285.002 447.266 271.272Z" fill="white"/>
<path d="M435.643 274.855C424.131 274.855 410.27 268.431 395.352 255.935C375.031 238.935 355.101 212.73 339.243 182.098C315.241 135.719 305.334 88.1658 314.027 60.942C316.924 51.8543 321.78 45.5086 328.397 42.1008C341.553 35.3633 360.073 41.0823 380.591 58.2392C400.912 75.2394 420.842 101.445 436.7 132.076C460.742 178.455 470.648 226.009 461.916 253.232C459.019 262.32 454.163 268.666 447.546 272.074C443.983 273.954 439.989 274.855 435.643 274.855ZM340.378 41.0823C336.345 41.0823 332.586 41.9049 329.219 43.6676C322.993 46.8404 318.451 52.8728 315.711 61.5296C307.136 88.3617 317.003 135.406 340.809 181.393C373.23 243.949 420.764 283.982 446.802 270.624C453.028 267.451 457.57 261.419 460.311 252.762C468.886 225.93 459.019 178.886 435.212 132.899C406.981 78.4514 367.356 41.0823 340.378 41.0823Z" fill="black"/>
<path d="M435.643 274.855C424.131 274.855 410.27 268.431 395.352 255.935C375.031 238.935 355.101 212.729 339.243 182.098C315.241 135.719 305.334 88.1657 314.027 60.9419C316.924 51.8542 321.78 45.5085 328.397 42.1007C337.207 37.5568 348.718 38.6928 361.679 45.3519C374.091 51.7367 387.521 63.0571 400.599 78.0596C400.912 78.4122 400.873 78.9606 400.521 79.2739C400.168 79.5873 399.62 79.5481 399.307 79.1956C372.76 48.7206 345.899 35.0891 329.219 43.6675C322.993 46.8404 318.451 52.8727 315.711 61.5295C307.136 88.3616 317.003 135.406 340.809 181.393C369.001 235.801 408.665 273.209 435.604 273.209C439.637 273.209 443.396 272.387 446.763 270.624C452.989 267.451 457.531 261.419 460.272 252.762C468.847 225.93 458.98 178.886 435.173 132.899C428.086 119.189 420.098 106.302 411.523 94.5898C411.249 94.1981 411.328 93.6497 411.719 93.3755C412.111 93.1013 412.659 93.1796 412.933 93.5713C421.586 105.362 429.574 118.327 436.739 132.116C460.742 178.455 470.648 226.008 461.916 253.232C459.019 262.32 454.163 268.666 447.546 272.074C443.983 273.954 439.989 274.855 435.643 274.855Z" fill="black"/>
<path d="M387.303 191.008C393.426 187.828 392.248 173.42 384.673 158.828C377.098 144.236 365.995 134.986 359.872 138.167C353.75 141.347 354.928 155.755 362.503 170.347C370.077 184.938 381.181 194.189 387.303 191.008Z" fill="#00286E"/>
<path d="M384.624 192.517C377.889 192.517 368.492 183.821 361.718 170.699C356.08 159.81 353.77 148.607 355.845 142.143C356.589 139.872 357.803 138.266 359.486 137.404C366.143 133.996 377.537 143.279 385.446 158.517C391.085 169.406 393.395 180.609 391.32 187.073C390.576 189.344 389.362 190.95 387.678 191.812C386.738 192.282 385.72 192.517 384.624 192.517ZM362.54 138.383C361.718 138.383 360.935 138.54 360.269 138.892C358.977 139.558 358.038 140.812 357.45 142.653C355.532 148.685 357.764 159.418 363.206 169.916C370.411 183.821 381.257 193.183 386.856 190.285C388.148 189.619 389.088 188.365 389.675 186.524C391.594 180.453 389.323 169.759 383.919 159.261C377.576 147.079 368.492 138.383 362.54 138.383Z" fill="#00286E"/>
<path d="M429.692 260.244C419.59 260.244 407.452 254.603 394.374 243.674C376.597 228.789 359.134 205.835 345.273 179.042C324.247 138.461 315.593 96.8224 323.19 72.9673C325.735 64.9764 330.003 59.4141 335.837 56.3979C349.228 49.543 368.923 57.4556 389.91 78.0987C390.262 78.4512 390.262 78.9604 389.91 79.313C389.558 79.6655 389.049 79.6655 388.696 79.313C368.257 59.2183 349.267 51.3841 336.62 57.9256C331.216 60.7068 327.262 65.9165 324.834 73.4765C317.355 96.9007 325.97 138.03 346.8 178.259C371.429 225.852 406.081 258.52 429.653 258.52C433.177 258.52 436.426 257.776 439.402 256.287C444.806 253.506 448.76 248.297 451.188 240.737C458.667 217.312 450.052 176.183 429.222 135.954C422.918 123.811 415.87 112.412 408.274 102.11C408 101.719 408.078 101.17 408.47 100.896C408.861 100.622 409.409 100.7 409.683 101.092C417.358 111.512 424.445 122.949 430.788 135.171C451.814 175.752 460.468 217.391 452.872 241.246C450.327 249.237 446.059 254.799 440.225 257.815C437.014 259.421 433.49 260.244 429.692 260.244Z" fill="black"/>
<path d="M195.308 293.187C195.269 293.187 195.23 293.187 195.23 293.187L173.577 290.836C173.46 290.836 173.342 290.797 173.225 290.719C168.761 290.014 163.123 284.373 159.011 276.461C154.626 268.117 153.334 259.97 155.722 256.131L155.762 256.014L167.038 236.036C167.077 235.958 167.117 235.919 167.156 235.88L195.857 206.071C195.896 206.031 195.935 205.992 195.974 205.953L269.508 153.464L316.024 55.6539C316.141 55.4581 316.298 55.3014 316.533 55.2231C316.768 55.1447 317.003 55.1447 317.199 55.2622C317.629 55.4581 317.825 55.9673 317.629 56.3982C305.844 81.6635 315.163 131.881 340.77 181.314C366.417 230.827 402.165 267.491 429.692 272.544C430.122 272.622 430.436 273.014 430.396 273.484C430.357 273.915 429.966 274.228 429.535 274.267L428.791 274.228C428.752 274.228 428.713 274.228 428.674 274.228L321.936 255.935L236.108 286.645C236.069 286.645 235.991 286.684 235.951 286.684L195.426 293.148C195.387 293.187 195.348 293.187 195.308 293.187ZM174.204 289.191L195.308 291.463L235.638 285L321.623 254.251C321.78 254.212 321.897 254.172 322.054 254.212L418.141 270.663C392.181 259.265 361.836 225.617 339.321 182.137C316.964 138.971 306.979 95.1383 312.461 67.4444L271.035 154.404C270.956 154.521 270.878 154.639 270.761 154.717L197.11 207.324L168.526 236.976L157.249 256.954C157.249 256.993 157.21 257.032 157.21 257.032C155.174 260.205 156.545 268.039 160.499 275.677C164.376 283.159 169.975 288.8 173.812 289.074C173.969 289.074 174.086 289.113 174.204 289.191Z" fill="black"/>
<path d="M270.367 153.738L316.845 56.0063H316.884C305.333 80.7624 313.751 130.94 340.025 181.706C366.376 232.55 402.634 268.47 429.573 273.405L428.829 273.366L322.052 255.073L319.586 254.642C307.173 252.449 290.611 236.31 278.747 213.278C266.569 189.658 264.416 166.116 269.819 154.913L270.367 153.738Z" fill="white"/>
<path d="M429.573 274.267C429.534 274.267 429.573 274.267 429.573 274.267L428.79 274.228C428.751 274.228 428.711 274.228 428.672 274.228L321.896 255.935L319.429 255.504C306.312 253.193 289.671 236.389 277.964 213.709C264.69 187.934 264.025 164.98 269.036 154.561L269.624 153.385L316.101 55.693C316.218 55.4971 316.375 55.3405 316.61 55.2621C316.845 55.1838 317.08 55.1838 317.276 55.3013C317.706 55.4971 317.902 56.0064 317.706 56.4372C305.921 81.7025 315.24 131.92 340.847 181.354C366.494 230.866 402.243 267.53 429.769 272.583C430.199 272.661 430.513 273.053 430.473 273.523C430.356 273.915 430.004 274.267 429.573 274.267ZM312.381 67.4443L271.151 154.13L270.563 155.305C265.591 165.646 267.04 188.757 279.491 212.886C290.963 235.135 307.134 251.587 319.742 253.781L322.209 254.212L418.1 270.663C392.14 259.265 361.795 225.617 339.281 182.137C316.923 138.971 306.939 95.1382 312.381 67.4443Z" fill="black"/>
<path d="M194.133 293.069C194.094 293.069 194.055 293.069 194.055 293.069L173.538 290.876C173.42 290.876 173.303 290.837 173.185 290.758C168.721 290.053 163.083 284.413 158.972 276.5C154.626 268.117 153.333 259.97 155.722 256.131L155.761 256.014L167.038 236.036C167.273 235.605 167.782 235.488 168.212 235.723C168.643 235.958 168.761 236.467 168.526 236.898L157.249 256.954C157.249 256.993 157.21 257.032 157.21 257.032C155.174 260.205 156.544 268.039 160.499 275.677C164.375 283.159 169.974 288.8 173.812 289.074C173.929 289.074 174.086 289.113 174.164 289.191L194.212 291.346C194.681 291.385 195.034 291.816 194.955 292.286C194.916 292.717 194.564 293.069 194.133 293.069Z" fill="black"/>
<path d="M195.503 292.207C188.847 291.737 179.528 282.297 172.754 269.253C165.589 255.426 163.905 241.128 168.29 236.036L156.583 256.405L156.505 256.562C154.273 260.009 155.565 267.96 159.755 276.069C163.866 284.06 169.661 289.622 173.733 289.935L173.616 290.014L195.503 292.207Z" fill="white"/>
<path d="M195.504 293.069C195.464 293.069 195.464 293.069 195.425 293.069C195.269 293.069 195.073 293.03 194.916 293.03L173.538 290.875C173.42 290.875 173.303 290.836 173.185 290.758C168.721 290.053 163.083 284.412 158.972 276.5C154.626 268.117 153.333 259.97 155.722 256.131L155.761 256.013L166.059 238.073C166.45 237.055 166.959 236.154 167.586 235.409C167.86 235.057 168.369 235.018 168.721 235.253C169.074 235.527 169.191 235.997 168.956 236.389L167.508 238.856C165.197 245.085 167.468 257.306 173.42 268.744C179.881 281.239 188.691 290.366 194.995 291.189L195.464 291.228C195.934 291.267 196.287 291.698 196.248 292.168C196.287 292.716 195.934 293.069 195.504 293.069ZM174.164 289.191L189.121 290.719C183.366 287.037 177.022 279.437 171.971 269.645C167.077 260.205 164.649 250.412 165.041 243.361L157.249 256.953C157.249 256.993 157.21 257.032 157.21 257.032C155.174 260.205 156.544 268.039 160.499 275.677C164.375 283.159 169.974 288.799 173.812 289.074C173.929 289.074 174.086 289.113 174.164 289.191Z" fill="black"/>
<path d="M234.345 286.057L236.068 285.705C226.749 287.663 212.026 273.562 201.65 253.545C191.039 233.098 189.042 212.69 196.56 206.658L195.581 207.637L168.368 235.918C163.905 240.932 165.549 255.308 172.754 269.214C179.684 282.61 189.512 292.168 196.208 292.129L234.345 286.057Z" fill="black"/>
<path d="M196.169 293.03C189.043 293.03 179.137 283.433 171.971 269.645C164.689 255.543 162.848 240.815 167.704 235.37L194.407 207.637C194.877 207.01 195.425 206.462 196.013 205.992C196.365 205.718 196.874 205.757 197.187 206.07C197.501 206.423 197.501 206.932 197.187 207.245L195.66 208.851C190.218 216.137 192.92 234.783 202.434 253.154C212.693 272.974 227.024 286.567 235.795 284.921L235.912 284.882C236.382 284.804 236.813 285.078 236.93 285.548C237.008 286.018 236.734 286.449 236.264 286.567C236.225 286.567 236.186 286.567 236.147 286.606L234.542 286.919H234.502L196.365 292.991C196.287 292.991 196.209 293.03 196.169 293.03ZM192.136 212.494L168.996 236.545C164.689 241.403 166.646 255.582 173.538 268.861C180.272 281.866 189.787 291.267 196.169 291.306L229.843 285.94C220.759 282.728 209.561 270.624 200.907 253.976C192.685 238.112 189.513 221.974 192.136 212.494Z" fill="black"/>
<path d="M359.878 138.148C353.731 141.282 354.631 155.814 362.462 170.307C375.579 194.554 386.034 191.695 387.248 191.264C387.287 191.264 387.287 191.303 387.248 191.303L364.733 209.439C358.116 200.156 351.812 189.814 346.017 178.651C340.496 167.957 335.837 157.303 332.156 146.961L359.878 138.148Z" fill="black"/>
<path d="M364.733 210.301C364.694 210.301 364.655 210.301 364.616 210.301C364.381 210.262 364.185 210.144 364.028 209.948C357.255 200.43 350.951 190.01 345.273 179.082C339.83 168.584 335.132 157.89 331.373 147.314C331.295 147.079 331.295 146.844 331.412 146.648C331.53 146.452 331.686 146.296 331.921 146.217L359.643 137.404C360.074 137.286 360.544 137.482 360.7 137.913C360.857 138.344 360.7 138.814 360.309 139.01C358.977 139.676 357.998 141.007 357.411 142.966C355.493 149.116 357.842 160.005 363.284 169.994C376.088 193.653 385.955 190.95 387.013 190.559C387.404 190.402 387.874 190.598 388.07 190.95C388.266 191.303 388.187 191.812 387.874 192.086L365.281 210.105C365.125 210.223 364.929 210.301 364.733 210.301ZM333.292 147.51C337.011 157.733 341.553 168.075 346.8 178.259C352.282 188.835 358.39 198.902 364.929 208.186L384.467 192.439C380.004 192.243 371.585 188.914 361.718 170.699C356.002 160.162 353.652 149.037 355.727 142.339C356.002 141.477 356.315 140.733 356.706 140.028L333.292 147.51Z" fill="black"/>
<path d="M475.723 82.2668C493.623 72.8631 500.547 50.7853 491.187 32.9546C481.827 15.124 459.729 8.29255 441.829 17.6962C423.929 27.0999 417.006 49.1778 426.365 67.0084C435.725 84.8391 457.823 91.6705 475.723 82.2668Z" fill="black"/>
<path d="M442.104 41.9046C443.827 39.5544 446.372 38.1051 449.27 37.7917C451.462 37.5567 453.498 38.0267 455.417 39.2018C456.396 39.7894 457.257 40.5337 458.08 41.4346C458.667 40.377 459.372 39.4369 460.194 38.6534C461.799 37.0866 463.718 36.1857 465.872 35.9507C468.769 35.6373 471.588 36.499 473.781 38.4184C475.934 40.2986 477.305 43.0406 477.657 46.1351C478.01 49.308 477.148 52.3633 474.956 55.732C472.998 58.7482 470.022 61.8818 466.576 65.5639C465.402 66.8174 464.07 68.2275 462.7 69.716C462.348 70.1077 461.839 70.3819 461.29 70.4211C460.742 70.4995 460.233 70.3428 459.763 70.0294C458.08 68.8543 456.474 67.7575 455.065 66.8174C450.914 63.9971 447.312 61.5685 444.728 59.0615C441.83 56.2804 440.342 53.4601 439.99 50.2872C439.677 47.1927 440.421 44.2157 442.104 41.9046Z" fill="white"/>
<path d="M577.272 84.2619C590.377 71.1523 590.377 49.8975 577.272 36.7879C564.168 23.6783 542.922 23.6783 529.817 36.7879C516.713 49.8975 516.713 71.1523 529.817 84.2619C542.922 97.3715 564.168 97.3715 577.272 84.2619Z" fill="#00286E"/>
<path d="M553.539 94.9427C534.587 94.9427 519.121 79.5093 519.121 60.5114C519.121 41.5526 534.548 26.0801 553.539 26.0801C572.529 26.0801 587.956 41.5134 587.956 60.5114C587.956 79.4701 572.529 94.9427 553.539 94.9427ZM553.539 27.8036C535.527 27.8036 520.844 42.4535 520.844 60.5114C520.844 78.53 535.488 93.2191 553.539 93.2191C571.55 93.2191 586.233 78.5692 586.233 60.5114C586.233 42.4927 571.589 27.8036 553.539 27.8036Z" fill="#00286E"/>
<path d="M562.622 63.8408C560.743 63.8408 559.098 64.7417 558.002 66.1518L546.686 61.7255C546.686 61.5688 546.725 61.4513 546.725 61.2946C546.725 61.0204 546.686 60.7462 546.647 60.472L558.237 55.1056C559.294 56.3199 560.86 57.1033 562.622 57.1425C565.833 57.1425 568.495 54.5181 568.495 51.2669C568.495 48.0157 565.872 45.3521 562.622 45.3521C559.411 45.3521 556.749 47.9765 556.749 51.2277C556.749 51.5019 556.788 51.7761 556.827 52.0503L545.237 57.4167C544.18 56.2024 542.614 55.419 540.852 55.3798C537.641 55.3798 534.979 58.0043 534.979 61.2555C534.979 64.5067 537.602 67.1703 540.852 67.1703C542.731 67.1703 544.376 66.2694 545.472 64.8592L556.788 69.2855C556.788 69.4422 556.749 69.5597 556.749 69.7164C556.749 72.9676 559.372 75.6312 562.622 75.6312C565.833 75.6312 568.495 73.0068 568.495 69.7556C568.456 66.5044 565.833 63.8799 562.622 63.8408Z" fill="white"/>
<path d="M563.067 190.662C578.433 179.992 582.294 158.952 571.69 143.668C561.085 128.384 540.032 124.644 524.665 135.314C509.299 145.984 505.438 167.024 516.042 182.308C526.647 197.592 547.7 201.332 563.067 190.662Z" fill="black"/>
<path d="M535.411 179.042L530.478 152.289C530.243 150.918 531.496 149.782 532.827 150.134L561.998 158.399C563.486 158.83 563.838 160.75 562.624 161.69L538.348 180.178C537.291 181.04 535.685 180.453 535.411 179.042Z" fill="white"/>
<path d="M543.535 300.251C562.512 291.009 570.452 268.223 561.271 249.355C552.09 230.488 529.264 222.685 510.287 231.927C491.311 241.169 483.371 263.956 492.552 282.823C501.733 301.69 524.559 309.493 543.535 300.251Z" fill="#00286E"/>
<path d="M526.718 305.016C522.646 305.016 518.495 304.39 514.462 303.019C504.595 299.728 496.607 292.834 491.987 283.512C487.367 274.228 486.662 263.691 489.99 253.82C496.881 233.49 519.043 222.405 539.443 229.181C549.31 232.472 557.298 239.366 561.918 248.689C566.539 257.972 567.243 268.509 563.915 278.38C558.355 294.675 543.045 305.016 526.718 305.016ZM527.109 228.946C511.486 228.946 496.842 238.817 491.556 254.408C488.385 263.848 489.05 273.915 493.475 282.767C497.899 291.659 505.535 298.279 514.971 301.413C534.47 307.876 555.653 297.3 562.232 277.871C565.403 268.431 564.737 258.364 560.313 249.511C555.888 240.619 548.253 233.999 538.817 230.866C534.94 229.534 530.986 228.946 527.109 228.946Z" fill="black"/>
<path d="M546.375 259.931C545.983 269.449 529.891 291.698 526.053 296.908C525.662 297.457 524.84 297.417 524.487 296.83C522.06 292.913 514.033 279.751 509.843 269.097C508.16 264.866 507.102 261.028 507.22 258.325C507.651 247.514 516.774 239.092 527.581 239.523C538.387 240.032 546.806 249.12 546.375 259.931Z" fill="white"/>
<path d="M533.13 265.496C536.632 261.993 536.632 256.314 533.13 252.811C529.628 249.308 523.951 249.307 520.45 252.811C516.948 256.314 516.948 261.993 520.45 265.496C523.951 268.999 529.628 268.999 533.13 265.496Z" fill="#00286E"/>
<defs>
<clipPath id="clip0_905_266">
<rect width="36" height="36" fill="white" transform="translate(293.537 427.669)"/>
</clipPath>
<clipPath id="clip1_905_266">
<rect width="70.3259" height="70.3259" fill="white" transform="translate(108.266 313.669) rotate(45)"/>
</clipPath>
</defs>
</svg>
